<svg width="4000" height="4000" viewBox="0 0 4000 4000" fill="none" xmlns="http://www.w3.org/2000/svg">
<path d="M0 200C0 89.5431 89.5431 0 200 0H3800C3910.46 0 4000 89.5431 4000 200V3800C4000 3910.46 3910.46 4000 3800 4000H200C89.5431 4000 0 3910.46 0 3800V200Z" fill="black"/>
<path d="M2700.36 2965.84C2698.79 3089.66 2545.25 3146.21 2463.74 3052.98L1988.84 2509.79C2119.01 2206.09 2384.98 1972.11 2714.07 1888.26L2700.36 2965.84ZM2509.59 927.741C2599.33 861.325 2726.31 926.339 2724.89 1037.97L2714.28 1872.03C2679.28 1870.39 2643.87 1870.43 2608.15 1872.24C2239.16 1890.85 1922.8 2092.61 1742.64 2385.06L1027.5 2317.65C904.207 2306.03 860.316 2148.41 959.854 2074.73L2509.59 927.741Z" fill="white"/>
</svg>
