<svg width="15010" height="3210" viewBox="0 0 15010 3210" fill="none" xmlns="http://www.w3.org/2000/svg">
<rect width="15010" height="3210" fill="white"/>
<path d="M3631.59 532.741C3721.33 466.325 3848.31 531.338 3846.89 642.971L3836.28 1477.03C3801.28 1475.39 3765.87 1475.43 3730.15 1477.24C3361.16 1495.85 3044.8 1697.61 2864.64 1990.06L2149.5 1922.65C2026.21 1911.03 1982.32 1753.41 2081.85 1679.73L3631.59 532.741Z" fill="black"/>
<path d="M3822.36 2570.84C3820.79 2694.66 3667.25 2751.21 3585.74 2657.98L3110.84 2114.79C3241.01 1811.09 3506.98 1577.11 3836.07 1493.26L3822.36 2570.84Z" fill="black"/>
<mask id="path-3-outside-1_74_8" maskUnits="userSpaceOnUse" x="5007" y="1056" width="7957" height="1051" fill="black">
<rect fill="white" x="5007" y="1056" width="7957" height="1051"/>
<path d="M5429 1057.5H5652.5L6071 2106H5838.5L5748.5 1878H5333L5243 2106H5009L5429 1057.5ZM5688.5 1696.5L5540 1297.5L5391.5 1696.5H5688.5ZM6197.69 1057.5H6419.69L6857.69 1735.5V1057.5H7085.69V2106H6865.19L6425.69 1428V2106H6197.69V1057.5ZM7242.13 1057.5H7470.13V1477.5H7927.63V1057.5H8155.63V2106H7927.63V1666.5H7470.13V2106H7242.13V1057.5ZM8311.46 1057.5H9038.96V1248H8539.46V1491H8906.96V1674H8539.46V1915.5H9038.96V2106H8311.46V1057.5ZM9149.35 1057.5H9513.85C9627.85 1057.5 9727.35 1078.5 9812.35 1120.5C9897.35 1162.5 9962.85 1222.5 10008.9 1300.5C10054.9 1378.5 10077.9 1470.5 10077.9 1576.5C10077.9 1750.5 10026.9 1882.5 9924.85 1972.5C9823.85 2061.5 9682.85 2106 9501.85 2106H9149.35V1057.5ZM9513.85 1915.5C9620.85 1915.5 9702.85 1885.5 9759.85 1825.5C9816.85 1765.5 9845.35 1682.5 9845.35 1576.5C9845.35 1513.5 9832.85 1457 9807.85 1407C9782.85 1357 9746.35 1318 9698.35 1290C9650.35 1262 9593.85 1248 9528.85 1248H9377.35V1915.5H9513.85ZM10204 1057.5H10658.5C10777.5 1057.5 10870 1087.5 10936 1147.5C11003 1206.5 11036.5 1292 11036.5 1404C11036.5 1482 11018.5 1548.5 10982.5 1603.5C10946.5 1657.5 10895.5 1697 10829.5 1722L11029 2106H10795L10610.5 1750.5H10432V2106H10204V1057.5ZM10618 1560C10676 1560 10721.5 1547.5 10754.5 1522.5C10788.5 1497.5 10805.5 1458 10805.5 1404C10805.5 1347 10789 1307 10756 1284C10723 1260 10677 1248 10618 1248H10432V1560H10618ZM11486.1 1057.5H11709.6L12128.1 2106H11895.6L11805.6 1878H11390.1L11300.1 2106H11066.1L11486.1 1057.5ZM11745.6 1696.5L11597.1 1297.5L11448.6 1696.5H11745.6ZM12254.8 1057.5H12482.8V1915.5H12962.8V2106H12254.8V1057.5Z"/>
</mask>
<path d="M5429 1057.5H5652.5L6071 2106H5838.5L5748.5 1878H5333L5243 2106H5009L5429 1057.5ZM5688.5 1696.5L5540 1297.5L5391.5 1696.5H5688.5ZM6197.69 1057.5H6419.69L6857.69 1735.5V1057.5H7085.69V2106H6865.19L6425.69 1428V2106H6197.69V1057.5ZM7242.13 1057.5H7470.13V1477.5H7927.63V1057.5H8155.63V2106H7927.63V1666.5H7470.13V2106H7242.13V1057.5ZM8311.46 1057.5H9038.96V1248H8539.46V1491H8906.96V1674H8539.46V1915.5H9038.96V2106H8311.46V1057.5ZM9149.35 1057.5H9513.85C9627.85 1057.5 9727.35 1078.5 9812.35 1120.5C9897.35 1162.5 9962.85 1222.5 10008.9 1300.5C10054.9 1378.5 10077.9 1470.5 10077.9 1576.5C10077.9 1750.5 10026.9 1882.5 9924.85 1972.5C9823.85 2061.5 9682.85 2106 9501.85 2106H9149.35V1057.5ZM9513.85 1915.5C9620.85 1915.5 9702.85 1885.5 9759.85 1825.5C9816.85 1765.5 9845.35 1682.5 9845.35 1576.5C9845.35 1513.5 9832.85 1457 9807.85 1407C9782.85 1357 9746.35 1318 9698.35 1290C9650.35 1262 9593.85 1248 9528.85 1248H9377.35V1915.5H9513.85ZM10204 1057.5H10658.5C10777.5 1057.5 10870 1087.5 10936 1147.5C11003 1206.5 11036.5 1292 11036.5 1404C11036.5 1482 11018.5 1548.5 10982.5 1603.5C10946.5 1657.5 10895.5 1697 10829.5 1722L11029 2106H10795L10610.5 1750.5H10432V2106H10204V1057.5ZM10618 1560C10676 1560 10721.5 1547.5 10754.5 1522.5C10788.5 1497.5 10805.5 1458 10805.5 1404C10805.5 1347 10789 1307 10756 1284C10723 1260 10677 1248 10618 1248H10432V1560H10618ZM11486.1 1057.5H11709.6L12128.1 2106H11895.6L11805.6 1878H11390.1L11300.1 2106H11066.1L11486.1 1057.5ZM11745.6 1696.5L11597.1 1297.5L11448.6 1696.5H11745.6ZM12254.8 1057.5H12482.8V1915.5H12962.8V2106H12254.8V1057.5Z" fill="black"/>
<path d="M5429 1057.5V1056.5H5428.32L5428.07 1057.13L5429 1057.5ZM5652.5 1057.5L5653.43 1057.13L5653.18 1056.5H5652.5V1057.5ZM6071 2106V2107H6072.48L6071.93 2105.63L6071 2106ZM5838.5 2106L5837.57 2106.37L5837.82 2107H5838.5V2106ZM5748.5 1878L5749.43 1877.63L5749.18 1877H5748.5V1878ZM5333 1878V1877H5332.32L5332.07 1877.63L5333 1878ZM5243 2106V2107H5243.68L5243.93 2106.37L5243 2106ZM5009 2106L5008.07 2105.63L5007.52 2107H5009V2106ZM5688.5 1696.5V1697.5H5689.94L5689.44 1696.15L5688.5 1696.5ZM5540 1297.5L5540.94 1297.15L5540 1294.63L5539.06 1297.15L5540 1297.5ZM5391.5 1696.5L5390.56 1696.15L5390.06 1697.5H5391.5V1696.5ZM5429 1057.5V1058.5H5652.5V1057.5V1056.5H5429V1057.5ZM5652.5 1057.5L5651.57 1057.87L6070.07 2106.37L6071 2106L6071.93 2105.63L5653.43 1057.13L5652.5 1057.5ZM6071 2106V2105H5838.5V2106V2107H6071V2106ZM5838.5 2106L5839.43 2105.63L5749.43 1877.63L5748.5 1878L5747.57 1878.37L5837.57 2106.37L5838.5 2106ZM5748.5 1878V1877H5333V1878V1879H5748.5V1878ZM5333 1878L5332.07 1877.63L5242.07 2105.63L5243 2106L5243.93 2106.37L5333.93 1878.37L5333 1878ZM5243 2106V2105H5009V2106V2107H5243V2106ZM5009 2106L5009.93 2106.37L5429.93 1057.87L5429 1057.5L5428.07 1057.13L5008.07 2105.63L5009 2106ZM5688.5 1696.5L5689.44 1696.15L5540.94 1297.15L5540 1297.5L5539.06 1297.85L5687.56 1696.85L5688.5 1696.5ZM5540 1297.5L5539.06 1297.15L5390.56 1696.15L5391.5 1696.5L5392.44 1696.85L5540.94 1297.85L5540 1297.5ZM5391.5 1696.5V1697.5H5688.5V1696.5V1695.5H5391.5V1696.5ZM6197.69 1057.5V1056.5H6196.69V1057.5H6197.69ZM6419.69 1057.5L6420.53 1056.96L6420.24 1056.5H6419.69V1057.5ZM6857.69 1735.5L6856.85 1736.04L6858.69 1738.89V1735.5H6857.69ZM6857.69 1057.5V1056.5H6856.69V1057.5H6857.69ZM7085.69 1057.5H7086.69V1056.5H7085.69V1057.5ZM7085.69 2106V2107H7086.69V2106H7085.69ZM6865.19 2106L6864.35 2106.54L6864.65 2107H6865.19V2106ZM6425.69 1428L6426.53 1427.46L6424.69 1424.62V1428H6425.69ZM6425.69 2106V2107H6426.69V2106H6425.69ZM6197.69 2106H6196.69V2107H6197.69V2106ZM6197.69 1057.5V1058.5H6419.69V1057.5V1056.5H6197.69V1057.5ZM6419.69 1057.5L6418.85 1058.04L6856.85 1736.04L6857.69 1735.5L6858.53 1734.96L6420.53 1056.96L6419.69 1057.5ZM6857.69 1735.5H6858.69V1057.5H6857.69H6856.69V1735.5H6857.69ZM6857.69 1057.5V1058.5H7085.69V1057.5V1056.5H6857.69V1057.5ZM7085.69 1057.5H7084.69V2106H7085.69H7086.69V1057.5H7085.69ZM7085.69 2106V2105H6865.19V2106V2107H7085.69V2106ZM6865.19 2106L6866.03 2105.46L6426.53 1427.46L6425.69 1428L6424.85 1428.54L6864.35 2106.54L6865.19 2106ZM6425.69 1428H6424.69V2106H6425.69H6426.69V1428H6425.69ZM6425.69 2106V2105H6197.69V2106V2107H6425.69V2106ZM6197.69 2106H6198.69V1057.5H6197.69H6196.69V2106H6197.69ZM7242.13 1057.5V1056.5H7241.13V1057.5H7242.13ZM7470.13 1057.5H7471.13V1056.5H7470.13V1057.5ZM7470.13 1477.5H7469.13V1478.5H7470.13V1477.5ZM7927.63 1477.5V1478.5H7928.63V1477.5H7927.63ZM7927.63 1057.5V1056.5H7926.63V1057.5H7927.63ZM8155.63 1057.5H8156.63V1056.5H8155.63V1057.5ZM8155.63 2106V2107H8156.63V2106H8155.63ZM7927.63 2106H7926.63V2107H7927.63V2106ZM7927.63 1666.5H7928.63V1665.5H7927.63V1666.5ZM7470.13 1666.5V1665.5H7469.13V1666.5H7470.13ZM7470.13 2106V2107H7471.13V2106H7470.13ZM7242.13 2106H7241.13V2107H7242.13V2106ZM7242.13 1057.5V1058.5H7470.13V1057.5V1056.5H7242.13V1057.5ZM7470.13 1057.5H7469.13V1477.5H7470.13H7471.13V1057.5H7470.13ZM7470.13 1477.5V1478.5H7927.63V1477.5V1476.5H7470.13V1477.5ZM7927.63 1477.5H7928.63V1057.5H7927.63H7926.63V1477.5H7927.63ZM7927.63 1057.5V1058.5H8155.63V1057.5V1056.5H7927.63V1057.5ZM8155.63 1057.5H8154.63V2106H8155.63H8156.63V1057.5H8155.63ZM8155.63 2106V2105H7927.63V2106V2107H8155.63V2106ZM7927.63 2106H7928.63V1666.5H7927.63H7926.63V2106H7927.63ZM7927.63 1666.5V1665.5H7470.13V1666.5V1667.5H7927.63V1666.5ZM7470.13 1666.5H7469.13V2106H7470.13H7471.13V1666.5H7470.13ZM7470.13 2106V2105H7242.13V2106V2107H7470.13V2106ZM7242.13 2106H7243.13V1057.5H7242.13H7241.13V2106H7242.13ZM8311.46 1057.5V1056.5H8310.46V1057.5H8311.46ZM9038.96 1057.5H9039.96V1056.5H9038.96V1057.5ZM9038.96 1248V1249H9039.96V1248H9038.96ZM8539.46 1248V1247H8538.46V1248H8539.46ZM8539.46 1491H8538.46V1492H8539.46V1491ZM8906.96 1491H8907.96V1490H8906.96V1491ZM8906.96 1674V1675H8907.96V1674H8906.96ZM8539.46 1674V1673H8538.46V1674H8539.46ZM8539.46 1915.5H8538.46V1916.5H8539.46V1915.5ZM9038.96 1915.5H9039.96V1914.5H9038.96V1915.5ZM9038.96 2106V2107H9039.96V2106H9038.96ZM8311.46 2106H8310.46V2107H8311.46V2106ZM8311.46 1057.5V1058.5H9038.96V1057.5V1056.5H8311.46V1057.5ZM9038.96 1057.5H9037.96V1248H9038.96H9039.96V1057.5H9038.96ZM9038.96 1248V1247H8539.46V1248V1249H9038.96V1248ZM8539.46 1248H8538.46V1491H8539.46H8540.46V1248H8539.46ZM8539.46 1491V1492H8906.96V1491V1490H8539.46V1491ZM8906.96 1491H8905.96V1674H8906.96H8907.96V1491H8906.96ZM8906.96 1674V1673H8539.46V1674V1675H8906.96V1674ZM8539.46 1674H8538.46V1915.5H8539.46H8540.46V1674H8539.46ZM8539.46 1915.5V1916.5H9038.96V1915.5V1914.5H8539.46V1915.5ZM9038.96 1915.5H9037.96V2106H9038.96H9039.96V1915.5H9038.96ZM9038.96 2106V2105H8311.46V2106V2107H9038.96V2106ZM8311.46 2106H8312.46V1057.5H8311.46H8310.46V2106H8311.46ZM9149.35 1057.5V1056.5H9148.35V1057.5H9149.35ZM9812.35 1120.5L9811.91 1121.4L9811.91 1121.4L9812.35 1120.5ZM10008.9 1300.5L10008 1301.01L10008 1301.01L10008.9 1300.5ZM9924.85 1972.5L9925.51 1973.25L9925.51 1973.25L9924.85 1972.5ZM9149.35 2106H9148.35V2107H9149.35V2106ZM9377.35 1248V1247H9376.35V1248H9377.35ZM9377.35 1915.5H9376.35V1916.5H9377.35V1915.5ZM9149.35 1057.5V1058.5H9513.85V1057.5V1056.5H9149.35V1057.5ZM9513.85 1057.5V1058.5C9627.73 1058.5 9727.07 1079.48 9811.91 1121.4L9812.35 1120.5L9812.79 1119.6C9727.63 1077.52 9627.97 1056.5 9513.85 1056.5V1057.5ZM9812.35 1120.5L9811.91 1121.4C9896.74 1163.31 9962.09 1223.18 10008 1301.01L10008.9 1300.5L10009.7 1299.99C9963.61 1221.82 9897.96 1161.69 9812.79 1119.6L9812.35 1120.5ZM10008.9 1300.5L10008 1301.01C10053.9 1378.83 10076.9 1470.65 10076.9 1576.5H10077.9H10078.9C10078.9 1470.35 10055.8 1378.17 10009.7 1299.99L10008.9 1300.5ZM10077.9 1576.5H10076.9C10076.9 1750.3 10025.9 1881.99 9924.19 1971.75L9924.85 1972.5L9925.51 1973.25C10027.8 1883.01 10078.9 1750.7 10078.9 1576.5H10077.9ZM9924.85 1972.5L9924.19 1971.75C9823.43 2060.54 9682.69 2105 9501.85 2105V2106V2107C9683.01 2107 9824.28 2062.46 9925.51 1973.25L9924.85 1972.5ZM9501.85 2106V2105H9149.35V2106V2107H9501.85V2106ZM9149.35 2106H9150.35V1057.5H9149.35H9148.35V2106H9149.35ZM9513.85 1915.5V1916.5C9621.04 1916.5 9703.34 1886.44 9760.58 1826.19L9759.85 1825.5L9759.13 1824.81C9702.37 1884.56 9620.66 1914.5 9513.85 1914.5V1915.5ZM9759.85 1825.5L9760.58 1826.19C9817.8 1765.95 9846.35 1682.68 9846.35 1576.5H9845.35H9844.35C9844.35 1682.32 9815.9 1765.05 9759.13 1824.81L9759.85 1825.5ZM9845.35 1576.5H9846.35C9846.35 1513.36 9833.82 1456.71 9808.75 1406.55L9807.85 1407L9806.96 1407.45C9831.88 1457.29 9844.35 1513.64 9844.35 1576.5H9845.35ZM9807.85 1407L9808.75 1406.55C9783.66 1356.38 9747.02 1317.23 9698.86 1289.14L9698.35 1290L9697.85 1290.86C9745.68 1318.77 9782.04 1357.62 9806.96 1407.45L9807.85 1407ZM9698.35 1290L9698.86 1289.14C9650.68 1261.03 9594 1247 9528.85 1247V1248V1249C9593.7 1249 9650.02 1262.97 9697.85 1290.86L9698.35 1290ZM9528.85 1248V1247H9377.35V1248V1249H9528.85V1248ZM9377.35 1248H9376.35V1915.5H9377.35H9378.35V1248H9377.35ZM9377.35 1915.5V1916.5H9513.85V1915.5V1914.5H9377.35V1915.5ZM10204 1057.5V1056.5H10203V1057.5H10204ZM10936 1147.5L10935.4 1148.24L10935.4 1148.25L10935.4 1148.25L10936 1147.5ZM10982.5 1603.5L10983.4 1604.05L10983.4 1604.05L10982.5 1603.5ZM10829.5 1722L10829.2 1721.06L10828.1 1721.46L10828.7 1722.46L10829.5 1722ZM11029 2106V2107H11030.7L11029.9 2105.54L11029 2106ZM10795 2106L10794.2 2106.46L10794.4 2107H10795V2106ZM10610.5 1750.5L10611.4 1750.04L10611.1 1749.5H10610.5V1750.5ZM10432 1750.5V1749.5H10431V1750.5H10432ZM10432 2106V2107H10433V2106H10432ZM10204 2106H10203V2107H10204V2106ZM10754.5 1522.5L10753.9 1521.69L10753.9 1521.7L10753.9 1521.7L10754.5 1522.5ZM10756 1284L10755.5 1284.81L10755.5 1284.81L10755.5 1284.82L10756 1284ZM10432 1248V1247H10431V1248H10432ZM10432 1560H10431V1561H10432V1560ZM10204 1057.5V1058.5H10658.5V1057.5V1056.5H10204V1057.5ZM10658.5 1057.5V1058.5C10777.4 1058.5 10869.6 1088.46 10935.4 1148.24L10936 1147.5L10936.7 1146.76C10870.5 1086.54 10777.7 1056.5 10658.5 1056.5V1057.5ZM10936 1147.5L10935.4 1148.25C11002.1 1207.01 11035.5 1292.21 11035.5 1404H11036.5H11037.5C11037.5 1291.79 11004 1205.99 10936.7 1146.75L10936 1147.5ZM11036.5 1404H11035.5C11035.5 1481.84 11017.6 1548.14 10981.7 1602.95L10982.5 1603.5L10983.4 1604.05C11019.5 1548.86 11037.5 1482.16 11037.5 1404H11036.5ZM10982.5 1603.5L10981.7 1602.95C10945.8 1656.76 10895 1696.13 10829.2 1721.06L10829.5 1722L10829.9 1722.94C10896.1 1697.87 10947.2 1658.24 10983.4 1604.05L10982.5 1603.5ZM10829.5 1722L10828.7 1722.46L11028.2 2106.46L11029 2106L11029.9 2105.54L10830.4 1721.54L10829.5 1722ZM11029 2106V2105H10795V2106V2107H11029V2106ZM10795 2106L10795.9 2105.54L10611.4 1750.04L10610.5 1750.5L10609.7 1750.96L10794.2 2106.46L10795 2106ZM10610.5 1750.5V1749.5H10432V1750.5V1751.5H10610.5V1750.5ZM10432 1750.5H10431V2106H10432H10433V1750.5H10432ZM10432 2106V2105H10204V2106V2107H10432V2106ZM10204 2106H10205V1057.5H10204H10203V2106H10204ZM10618 1560V1561C10676.2 1561 10721.9 1548.47 10755.1 1523.3L10754.5 1522.5L10753.9 1521.7C10721.2 1546.53 10675.9 1559 10618 1559V1560ZM10754.5 1522.5L10755.1 1523.31C10789.5 1498.07 10806.5 1458.22 10806.5 1404H10805.5H10804.5C10804.5 1457.78 10787.6 1496.93 10753.9 1521.69L10754.5 1522.5ZM10805.5 1404H10806.5C10806.5 1346.82 10790 1306.44 10756.6 1283.18L10756 1284L10755.5 1284.82C10788.1 1307.56 10804.5 1347.18 10804.5 1404H10805.5ZM10756 1284L10756.6 1283.19C10723.4 1259.02 10677.2 1247 10618 1247V1248V1249C10676.9 1249 10722.7 1260.98 10755.5 1284.81L10756 1284ZM10618 1248V1247H10432V1248V1249H10618V1248ZM10432 1248H10431V1560H10432H10433V1248H10432ZM10432 1560V1561H10618V1560V1559H10432V1560ZM11486.1 1057.5V1056.5H11485.5L11485.2 1057.13L11486.1 1057.5ZM11709.6 1057.5L11710.6 1057.13L11710.3 1056.5H11709.6V1057.5ZM12128.1 2106V2107H12129.6L12129.1 2105.63L12128.1 2106ZM11895.6 2106L11894.7 2106.37L11894.9 2107H11895.6V2106ZM11805.6 1878L11806.6 1877.63L11806.3 1877H11805.6V1878ZM11390.1 1878V1877H11389.4L11389.2 1877.63L11390.1 1878ZM11300.1 2106V2107H11300.8L11301.1 2106.37L11300.1 2106ZM11066.1 2106L11065.2 2105.63L11064.7 2107H11066.1V2106ZM11745.6 1696.5V1697.5H11747.1L11746.6 1696.15L11745.6 1696.5ZM11597.1 1297.5L11598.1 1297.15L11597.1 1294.63L11596.2 1297.15L11597.1 1297.5ZM11448.6 1696.5L11447.7 1696.15L11447.2 1697.5H11448.6V1696.5ZM11486.1 1057.5V1058.5H11709.6V1057.5V1056.5H11486.1V1057.5ZM11709.6 1057.5L11708.7 1057.87L12127.2 2106.37L12128.1 2106L12129.1 2105.63L11710.6 1057.13L11709.6 1057.5ZM12128.1 2106V2105H11895.6V2106V2107H12128.1V2106ZM11895.6 2106L11896.6 2105.63L11806.6 1877.63L11805.6 1878L11804.7 1878.37L11894.7 2106.37L11895.6 2106ZM11805.6 1878V1877H11390.1V1878V1879H11805.6V1878ZM11390.1 1878L11389.2 1877.63L11299.2 2105.63L11300.1 2106L11301.1 2106.37L11391.1 1878.37L11390.1 1878ZM11300.1 2106V2105H11066.1V2106V2107H11300.1V2106ZM11066.1 2106L11067.1 2106.37L11487.1 1057.87L11486.1 1057.5L11485.2 1057.13L11065.2 2105.63L11066.1 2106ZM11745.6 1696.5L11746.6 1696.15L11598.1 1297.15L11597.1 1297.5L11596.2 1297.85L11744.7 1696.85L11745.6 1696.5ZM11597.1 1297.5L11596.2 1297.15L11447.7 1696.15L11448.6 1696.5L11449.6 1696.85L11598.1 1297.85L11597.1 1297.5ZM11448.6 1696.5V1697.5H11745.6V1696.5V1695.5H11448.6V1696.5ZM12254.8 1057.5V1056.5H12253.8V1057.5H12254.8ZM12482.8 1057.5H12483.8V1056.5H12482.8V1057.5ZM12482.8 1915.5H12481.8V1916.5H12482.8V1915.5ZM12962.8 1915.5H12963.8V1914.5H12962.8V1915.5ZM12962.8 2106V2107H12963.8V2106H12962.8ZM12254.8 2106H12253.8V2107H12254.8V2106ZM12254.8 1057.5V1058.5H12482.8V1057.5V1056.5H12254.8V1057.5ZM12482.8 1057.5H12481.8V1915.5H12482.8H12483.8V1057.5H12482.8ZM12482.8 1915.5V1916.5H12962.8V1915.5V1914.5H12482.8V1915.5ZM12962.8 1915.5H12961.8V2106H12962.8H12963.8V1915.5H12962.8ZM12962.8 2106V2105H12254.8V2106V2107H12962.8V2106ZM12254.8 2106H12255.8V1057.5H12254.8H12253.8V2106H12254.8Z" fill="black" mask="url(#path-3-outside-1_74_8)"/>
<line x1="4424" y1="471" x2="4424" y2="2739" stroke="black" stroke-width="40"/>
</svg>
