<svg width="4000" height="4000" viewBox="0 0 4000 4000" fill="none" xmlns="http://www.w3.org/2000/svg">
<path d="M0 200C0 89.5431 89.5431 0 200 0H3800C3910.46 0 4000 89.5431 4000 200V3800C4000 3910.46 3910.46 4000 3800 4000H200C89.5431 4000 0 3910.46 0 3800V200Z" fill="white"/>
<path fill-rule="evenodd" clip-rule="evenodd" d="M2696.36 2965.84C2694.79 3089.66 2541.25 3146.21 2459.74 3052.98L1984.84 2509.79C2115.01 2206.09 2380.98 1972.11 2710.07 1888.26L2696.36 2965.84ZM2505.59 927.741C2595.33 861.325 2722.31 926.338 2720.89 1037.97L2710.28 1872.03C2675.28 1870.39 2639.87 1870.43 2604.15 1872.24C2235.16 1890.85 1918.8 2092.61 1738.64 2385.06L1023.5 2317.65C900.206 2306.03 856.315 2148.41 955.854 2074.73L2505.59 927.741Z" fill="black"/>
</svg>
